<?xml version="1.0" encoding="UTF-8"?>
<svg id="_圖層_1" data-name="圖層 1" xmlns="http://www.w3.org/2000/svg" viewBox="0 0 636.02 444.47">
  <defs>
    <style>
      .cls-1 {
        fill: #FFF;
      }
    </style>
  </defs>
  <path class="cls-1" d="m620.92,169.63c-.14-2.24-.27-4.49-.53-6.72-.32-2.77-1.11-5.42-1.51-8.16-.45-3.04-.67-6.12-1.19-9.15-.53-3.07-1.4-6.12-2.86-8.88-1.21-2.28-3.88-4.23-4.57-6.65-1.24-4.4,3.99-8.62,8.05-7.71,3.07.69,6.29,2.14,7.58,5.53,1.19,3.14,2.53,6.33,4.03,9.35,1.37,2.76,1.98,5.81,2.57,8.86,1.24,6.4,1.44,12.87,2.39,19.29.9,6.1,1.58,12.18.83,18.38-.37,3.03-1.04,5.98-4.4,6.97-6.56,1.94-8.3-5.99-9.25-10.64-.7-3.45-.92-6.95-1.13-10.46Z"/>
  <path class="cls-1" d="m430.44,270.76c-4.71-.06-8.7-4.64-10.07-11.26-.23-1.12-.11-2.35-.5-3.4-.72-1.91-1.76-3.07-3.75-.96-2.46,2.61-5.06,5.1-7.66,7.57-3.3,3.14-5.49,2.24-7.39-1.96-1.81-4,.09-9.44-5.16-12.26-1.34-.72.14-3.5,1.71-4.22,1.76-.81,3.95-1,5.25,1.16.49.82.53,1.98,1.13,2.65,1.53,1.7,2.63,5.95,3.06,5.52,2.46-2.5,6.13-2.69,8.53-6.08,2.29-3.23,4.62-6.06,5.7-9.96.4-1.43,2.12-1.98,3.78-1.49,1.74.51,2.32,1.78,2.01,3.44-.77,4.09.53,6.05,5.02,5.73,1.45-.1,3.28.81,2.91,3.14-.24,1.53-1.02,2.36-2.61,2.4-1.74.04-4.48-.83-4.92.84-.59,2.23-.07,5.03.77,7.29.68,1.84,2.25,4.02,3.95,4.65,2.25.84,4.47,1.26,3.81,4.07-.67,2.88-3.1,3.59-5.56,3.13Z"/>
  <path class="cls-1" d="m319.43,262.18c2.31-9.2,1.44-19.06,5.95-27.78.66-1.28,1.22-2.69,2.16-3.74,1.73-1.93,4.31-1.33,5.73-.2,1.89,1.5.18,2.75-1.45,3.6-.5.26-.9,1.03-1.05,1.64-1.21,4.85-2.32,9.72-3.51,14.57-.75,3.06,1.72,4.52,3.54,5.21,2.97,1.13,6.3,2.29,9.6.89,1.33-.56.33-1.68.22-2.58-.4-3.47-2.07-6.54-2.97-9.85-.54-1.97-2.65-4.59.88-5.81,3.27-1.13,3.22,1.21,4.06,3.63.89,2.56,1,6.15,4.85,7.25,2.27.65,2.24,3.04,1.83,5.08-1.01,5.01.21,9.73,2.23,14.18,1.06,2.33.53,4.26-1.23,5.01-1.99.85-3.09-1.17-3.79-2.95-.3-.76-.67-1.49-.99-2.24-1.48-3.4-2.49-7.11-7.82-5.75-1,.26-3.24-.07-4.68-.69-4.6-1.98-8.21-2.59-8.4,4.25-.04,1.39-1.15,2.97-3,2.64-1.73-.3-2.25-1.72-2.17-3.39.05-.99,0-1.99,0-2.99Z"/>
  <path class="cls-1" d="m209.54,260.87c-.59-2-3.24-3.1-1.27-5.11,1.56-1.59,3.2-.92,4.95-.05,3.54,1.76,7.3,3.16,8.82,7.35.48,1.33.78,2.59-.39,3.66-1.22,1.12-2.8,1.64-4.02.42-1.47-1.48-2.57-1.29-4.34-.49-7.33,3.32-25.56-.7-30.75-6.92-2.79-3.34-2.75-7.55-.33-10.96,4.87-6.89,11.44-12.17,19.12-15.42,3.25-1.37,7.57-.61,11.33-.18,1.99.22,3.49,2.22,2.72,4.49-.64,1.9-2.29,1.16-3.72.7-7.09-2.3-12.35,1.47-17.49,5.45-1.57,1.21-2.91,2.73-4.31,4.14-5.01,5.04-4.81,8.02,1.48,10.79,5.67,2.5,11.81,3.12,18.19,2.13Z"/>
  <path class="cls-1" d="m274.7,261.85c-1.54-1.55-2.93-.84-4.16-1.04-3.08-.51-5.21-3.2-4.52-6.23.75-3.34,1.17-6.88,3.94-9.43,1.09-1.01,2.35-1.54,3.58-.7,1.31.89.99,2.23.3,3.51-.54,1-1.11,2.05-1.34,3.15-.32,1.57-.84,3.38,1.76,3.74,2.27.32,3.55-.37,3.38-2.83-.14-2,.09-3.82,1.11-5.69,1-1.83,2.43-1.61,3.79-1.31,1.32.29,2.47,1.33,2.05,2.88-1.1,4.15.62,6.5,4.01,8.95,4.09,2.96,4.71,7.92,4.34,12.73-.2,2.59-2.04,4.97-4.51,4.28-1.94-.54-3.78-2.73-2.1-5.86,1.68-3.12-.52-6.48-5.34-9.07.4,4.11-1.99,7.02-4.19,9.95-1.45,1.93-3.5,3-5.42.95-1.63-1.74-1.42-3.97.41-5.73.8-.77,1.76-1.36,2.92-2.25Z"/>
  <path class="cls-1" d="m377.43,263.87c.82-4.69.39-9.42.2-14.12-.1-2.53,1.22-4.59,1.9-6.84.52-1.73,2.2-.96,3.36-.42,5.15,2.43,9.14,6.14,11.08,11.52,1.46,4.06,1.72,8.58,4.49,12.15.77,1,.13,1.81-.41,1.98-1.39.43-3.47,2.21-4.25.49-2.5-5.45-6.56-5.05-11.2-3.94-1.39.33-2.93.01-4.4,0-.39-.14-.64-.42-.76-.81Z"/>
  <path class="cls-1" d="m258.31,258.09c-2.66,4.11-5.82,5.94-9.21,4.06-1.88-1.05-3.47-4.34-2.17-6.68,1.13-2.05,1.48-4.28,2.57-6.31,3.31-6.13,4.21-6.45,10.33-3.46,1.95.95,2.51,2.14,2.7,4.19.41,4.53,1.25,8.99,3.87,12.91.9,1.34,1.91,2.98.07,4.37-1.92,1.45-3.68.12-4.72-1.12-1.67-2-3.14-4.27-3.45-7.96Z"/>
  <path class="cls-1" d="m377.43,263.87c.25.27.51.54.76.81-.34,5.16-1.8,5.73-7.16,5.24-7.83-.72-10.74-7.34-15.25-11.88-1.87-1.88,4.97-9.77,7.98-9.03,2.34.58,5.5.45,6.23,3.82.81,3.7-2.65,4.44-4.94,6.54,3.87,2.77,6.58,7.52,12.37,4.5Z"/>
  <path class="cls-1" d="m234.4,227.17c1.89,1.13,1.98,3.07,2.08,5.19.38,8.18,1.12,16.33,2.98,24.34.38,1.65.84,3.19,1.92,4.41,1.1,1.24,1.05,2.08-.06,3.34-1.33,1.51-2.28,1.02-3.73.22-4.11-2.25-4.38-6.51-4.88-10.16-1.03-7.43-1.24-14.98-1.79-22.48-.18-2.38.52-4.17,3.48-4.86Z"/>
  <path class="cls-1" d="m434.03,409.46c.14,2.83-.81,5.46-1.57,8.12-1.12-2.05-2.25-4.1-3.37-6.14.34-.66.68-1.32,1.02-1.98,1.31,0,2.61,0,3.92,0Z"/>
  <path class="cls-1" d="m449.86,362.7c-2.48-.36-6.22,3.03-6.57,6.16-.61,5.43-2.38,10.76-3.58,16.08-.91,4.02-1.87,8.09-2.59,12.14-.55,3.11-.93,6.28-1.99,9.28-.84,2.38-2.32,4.36-2.8,6.88-.55,2.93-1.21,7.91,1.32,10.17.78.69,1.8,1.03,2.75,1.47,1.06.49,2.04,1.11,3.11,1.58,1.64.72,3.65,1.01,5.14-.19,1.32-1.06,2.17-2.69,2.8-4.23,1.03-2.54,1.49-5.25,2.01-7.92,1.38-7,1.64-14.08,2.5-21.14s1.79-14.68,2.72-22.02c.51-4.03-1.62-7.81-4.83-8.27Z"/>
  <path class="cls-1" d="m250.02,344.06c.38-.64.74-1.29,1.31-1.76.82-.67,1.97-.84,3.02-.68s2.03.61,3,1.05c3.87,1.78,7.89,3.61,12.15,3.63,2.97.02,5.8-.92,8.73-1.17,1.99-.17,3.93.21,5.86-.51,1.33-.5,2.53-1.29,3.64-2.17,1.26-.99,2.46-2.15,3.63-3.25.98-.92,1.86-2.03,2.1-3.35.16-.88,0-1.8-.35-2.63-1.45-3.41-5.59-4.39-8.94-3.77-.97.18-1.92.5-2.88.72-4.21.95-8.17-.12-12.31-.77-3.14-.5-6.12-.75-8.02-3.71-.79-1.24-1.14-2.42-.24-3.66.57-.79,1.24-1.56,2.45-1.14,7.12,2.44,13.8.87,20.2-2.43,3.18-1.64,5.24-4.01,3.4-7.97-1.45-3.11-2.58-6.47-7.25-4.74-.8.3-2.11.06-2.81-.44s.05-1.43.39-2.17c2.21-4.8-.04-12.48-4.52-15.16-4.31-2.59-9.15-4.08-14.01-4.77-4.9-.69-10.28-1.07-13.25,4.57.47.64.93,1.27,1.4,1.91.75,2.1,5.16,4.34-.24,6.21-2.18-1.89-3.03-4.56-4.19-7.06-.42-.25-.9-.43-1.24-.75-3.77-3.61-9.17-5.79-14.24-6.68-4.67-.83-10.3.13-15.15,2.69-3.15,1.66-6.55,2.73-7.42,6.76,1.56,5.9,3.42,6.61,9.02,4.22,4.97-2.12,10.06-2.28,15.13.22,3.71,1.83,3.41,3.63,1.17,6.71-4.92,6.75-10.74,12.96-17.33,18.07-1.91,1.48-3.75,3.25-4.42,5.57-1.88,6.44,4.79,10.88,10.38,10.9,5.73.02,11.44.68,17.11-.92,3.71-1.05,5.39-3.06,5.3-7.03-.09-3.96-2.14-4.57-5.43-4.38-1.4.08-2.86-.6-4.26-1.03-1.02-.31-2.12-1.2-1.14-2.11,5.46-5.11,9.34-11.62,15.02-17.86.85,5.03.19,9.12.11,12.88-.11,4.82,1.37,9.04,2.13,13.5.37,2.17.36,3.13-1.83,4.17-4.15,1.98-7.01,5.86-11.19,7.98-6.99,3.55-14.13,3.63-20.98.56-3.47-1.55-5.06-5.26-5.93-8.76-.77-3.1-1.19-6.31-1.74-9.45-.57-3.26-.22-6.49-.24-9.79-.02-3.83-.51-7.63.95-11.28.62-1.55.09-5.12-3.42-5.45-1.56-.15-3.37,1.46-4.16,2.63-1.03,1.52-1.54,3.46-2.03,5.21-1.33,4.71-1.1,9.68-1.11,14.52-.01,6.21-.3,12.32,1.51,18.33,1.47,4.88,3.52,9.68,7.43,13.11.45.39.91.76,1.39,1.11,1.78,1.46,3.88,2.27,6.02,2.99,1.52.51,9.17,2.65,12.07,2.02,2.97-.65,6.3-.71,7.44,2.49,1.23,3.46-2.78,3.8-4.67,4.98-2.89,1.81-4.31,4.13-3.8,7.3.5,3.14,2.21,5.16,5.63,6.4,2.63.96,4.66-.41,7-.03,5.22.85,6.14,5.9,9.19,8.84,1.51,1.46,3.89,4.34,3.01,6.61-.46,1.18-1.49,1.82-2.24,2.74-1.12,1.37-1.45,3.37-.95,5.05.54,1.82,2.03,3.31,3.84,3.9,1.44.47,3,.38,4.48.71.62.14,1.27.39,1.59.93.68,1.14-.43,2.77-1.03,3.74-1.94,3.14-3.18,6.49-2.55,9.98.38,2.07.06,4.31-2.22,4.99-4.69,1.39-10.62.55-15.41-.06-10.26-1.29-20.56-4.59-29.48-9.85-5.26-3.1-9.34-7.21-12.22-12.59-1.24-2.32-1.93-4.32-.99-6.86.84-2.27.74-5.31-1.45-6.82-2.08-1.43-5.06-2.28-7.32-.26-2.08,1.87-4.37,3.74-4.89,6.91-1.59,9.79,3.31,17.26,9.13,23.99,6.72,7.77,15.2,12.51,24.47,16.62,3.9,1.73,7.81,3.46,11.89,4.71,7.02,2.15,14.46,2.38,21.75,2.53,6.62.14,13.08-.59,18.33-5.09,1.65-1.42,3.07-3.09,4.27-4.91,1.79-6,.91-8.38-4.08-11.02.07-.34.14-.67.21-1.01-.2-3.73,4.08-4.63,4.88-7.73.27-.59.57-1.16.82-1.76,1.4-3.29,2.2-7,7.35-3.51,1.26.85,3.25,1.9,5.1,2.44,3.17.92,6.37,1.46,7.84-2.35,1.25-3.24-.1-6.06-2.97-7.92-1.77-1.14-3.69-2.24-5.7-2.8-2.34-.65-3.21-.89-1.22-3.31,2.93-3.57.6-8.31-3.97-8.86-3.21-.39-5.7.78-7.94,2.99-.62.61-1.86,2.66-2.52.98-.95-2.43-2.43-4.55-2.77-7.19-.21-1.61-1.91-4.73-.71-6.21.23-.28.57-.44.9-.58,2.2-.97,4.49-1.76,6.82-2.35s4.55-.98,6.7-1.88c2.52-1.05,4.92-2.36,7.4-3.48,1.65-.74,3.35-1.41,4.85-2.4s2.83-2.45,3.47-4.2c.78-2.17-.32-4.34-1.46-6.16-.28-.45-.58-.91-1.01-1.23-.78-.59-1.84-.62-2.81-.5-2.28.28-4.57.28-6.84.62-2.4.36-4.32,2.06-6.9,1.42-.06-.02-.13-.04-.17-.09-.03-.04-.03-.1-.03-.15,0-1.27.12-2.65-.63-3.76-.48-1.21-1.37-2.19-2.64-2.58-1.64-.49-3.03-1.19-4.69-.24-1.16.67-1.98,1.81-2.58,3.01s-1.02,2.48-1.62,3.68c-2.03,4.09-6.17,7.05-10.69,7.66-.79.11-1.62.14-2.35-.17-1.03-.43-1.69-1.46-2.16-2.48-1.7-3.69-1.71-8.32.66-11.61,1.37-1.9,3.41-3.25,4.68-5.22.09-.15.19-.3.28-.45Zm8.71-48.48c1.72,0,3.7.26,4.69,2,.68,1.2,1.49,2.51,0,3.98-1.02,1.01-1.65,2.43-2.38,3.71-.78,1.36-1.84,2.7-3.41,2.35-2.11-.47-.44-2.6-.99-3.19-.46-2.46.25-4.13.82-5.83.35-1.06-.97-3.01,1.26-3.02Z"/>
  <path class="cls-1" d="m497.42,130.87c.71-7.05,1.73-14.15,2.44-21.22,1.02-10.14,2.38-20.25,3.26-30.42-.26-2.76-.29-5.48,1.18-7.98-.44-4.18-3.08-6.69-6.94-6.58-6.97.19-6.74,9.96-7.66,14.87-2.78,14.87-4.93,29.78-6.76,44.8-.59,4.88-1.19,9.75-1.78,14.62,0,10.05-2.88,20.05-3.06,30.16-.2,10.94-2.32,21.81-1.09,32.79-.26,6.33,1.21,8.36,7.09,9.82,3.62-.51,6.57-2.16,8.73-5.15,1.37-3.25,2.75-6.51,4.12-9.76.7-5.16,3.54-9.75,3.37-15.28-.09-3.07-.74-5.13-3.21-6.34-5.34-2.62-3.18-7.96-2.78-12.76.03-.4.07-.8.1-1.2,0-10.06,2-20.38,3-30.38Z"/>
  <path class="cls-1" d="m611.76,158.04c-.28-3.33-2.05-4.37-4.7-6.05-12.28-7.76-17.11-22.89-27.08-32.91-3.2-3.21-5.37-2.12-8.96-.47-3.74,1.72-3.44,6.12-2.26,9.41.52,1.45,2.08,3.22,2.02,4.73-.07,2-2.57,3.38-4.18,4.01-3.62,1.43-7.24.11-11,.38-9.17.65-17.75-1.07-25.69-5.78-.27-.19-.57-.29-.9-.29-1.03-.7-2.06-1.41-3.09-2.11-2.67-2.27-5.34-4.55-8.01-6.82-2.51-3.04-7.18-4.25-9.63-2.48-2.48,1.79-3.07,6.8-.99,9.83,5.73,8.31,13.08,14.56,22.26,19.08,3.45,1.7,7.17,2.87,10.58,3.83,6.28,1.76,10.77,2.13,17.29,1.74,3.41-.2,6.85-.41,10.15-1.27,2.93-.77,5.7-2.04,8.35-3.49,1.41-.78,2.95-1.64,4.53-1.36,2.7.47,3.88,3.51,5.45,5.38,5.35,6.37,13.32,13.97,22.01,10.61,2.85-1.1,4.1-2.82,3.84-5.97Z"/>
  <path class="cls-1" d="m447.45,140.03c-5.93-3.26-12.52-4.47-19.24-3.73-9.62,1.07-20.15,1.67-29.09,5.65-5.79,2.58-6.8,1.48-7.14-5.51-.06-1.31-.69-2.47-1.67-3.4-2.38-3.74-5.17-3.2-8.15-.78-1.9,3.74-3.8,7.82-2.65,11.84,1.47,5.16-.38,8.52-4.16,11.19-3.55,2.5-5.86,5.65-6.92,9.8-.83,6.9,2.54,13.1,3.84,20.9-.18-1.1-2.56-3.15-3.22-4.19-.99-1.53-1.83-3.14-2.55-4.81-1.33-3.1-2.04-6.32-2.84-9.57-1.12-4.58-1.76-9.29-1.7-14.02.03-2.48.23-4.96.66-7.4.33-1.89,1.45-3.75-.13-5.41-.85-.89-2.08-1.34-3.31-1.46-1.38-.14-2.8.11-4.04.74-1.89.97-3.24,2.78-4.03,4.74s-1.1,4.09-1.32,6.2c-1.16,11.08-1.22,24.26,3.34,34.67,1.81,4.15,4.28,8,7.18,11.47.54.62,1.16,1.19,1.6,1.88,3.4,5.41,10.13,8.82,15.16,7.64,2.07-.49,4.45-1.03,5.69-2.93,1.57-2.41,1.56-5.42,1.87-8.18.54-4.9.15-9.98-1.92-14.52-1.21-2.65-1.66-5.49-2.18-8.35-.12-.62-.16-1.21.04-1.83.16-.5.76-1.32,1.22-1.61,1.11,2.12,1.94,4.35,2.6,6.65.62,2.15,1.93,4.05,3.51,5.64,5.91,5.97,14.06,8.26,22.27,6.69,1.28-.24,2.74-.18,3.79.67,1.25,1,1.43,2.77,1.84,4.22.57,2.02,1.26,4,2.07,5.94.75,1.78,1.53,3.92,2.73,5.45,1.78,2.27,5.62,2.32,8.18,1.76,3.25-.7,5.06-3.37,5.57-6.53.29-1.8.2-3.64.11-5.47-.14-2.83-.28-5.66-.42-8.49-.07-1.44-.15-2.88-.23-4.33-.06-1.14-.18-2.37.21-3.47,1-2.88,4.76-3.74,7.14-5.12,3.05-1.77,5.92-3.89,8.33-6.48,3.45-3.7,6.45-8.65,5.72-13.82-.68-4.81-3.4-9.94-7.77-12.34Zm-20.31,20.46c-1.9,1.41-4.29,1.37-6.58,1.85-2.93.62-5.63,2.11-8.11,3.74-1.38.91-2.68,1.95-4.11,2.78-1.33.78-3.28,2.18-4.88,2.21-2.46.05-4.61-1.89-5.93-3.79-.9-1.29-2.01-3.37-1.73-4.99.2-1.19,1.03-1.28,2.06-1.44,1.74-.28,3.41-.86,5.09-1.37,7.81-2.39,15.66-3.71,23.82-2.43.65.1,1.39.28,1.68.87.32.65-.1,1.42-.6,1.93-.23.24-.47.44-.72.63Z"/>
  <path class="cls-1" d="m404.02,346.63c-1.83-5.87-6.59-6.97-11.68-6.41-5.27.59-10.52,1.4-15.74,2.34-2.61.47-5.22.98-7.81,1.51-1.91.39-4.03,1.13-5.11-1.05-1.07-2.15-2.56-4.45-2.1-6.96.46-2.53,2.92-3.76,1.85-6.62-.52-1.39-1.58-2.51-2.6-3.59-1.06-1.11-1.99-1.56-3.5-1.31-1.97.34-3.96.77-5.73,1.7s-3.32,2.44-3.91,4.35c-.74,2.38.08,4.93.44,7.4s0,5.46-2.17,6.69c-.87.49-1.89.62-2.89.71-5.14.48-10.33.42-15.46-.17-1.06-.12-2.34-.47-2.57-1.51-.13-.61.18-1.22.48-1.76,3.66-6.59,8.31-13.34,15.42-15.85,1.17-.41,2.39-.7,3.47-1.32,1.59-.91,2.29-2.44,2.37-4.23.21-4.55-4.76-5.35-8.29-5.09-6.5.48-10.88,5.31-15.25,9.58-4.84,4.73-9.8,9.65-12.06,16.19-2.39,6.93-.08,12.97,6.48,16.05,6.16,2.9,12.57,3.1,19.11,3.27,4.65.12,9.26.2,13.62,2.51,2.33,1.24,3.96,5.28,1.55,7.12-1.71,1.31-4.6,1.88-6.59,2.68-2.54,1.03-5.08,2.06-7.61,3.13-1.29.54-2.62,1.12-3.61,2.11-2.31,2.31-3.13,6.31-1.2,9.11,2.69,3.91,8.17,2.44,11.68.63,3.05-1.57,6.01-3.79,9.45-4.41,1.39-.25,1.67.21,1.94,1.43,1.97,8.95,2.73,19.15,6.83,27.43,1.15,2.32,2.97,4.69,5.55,4.92,3.87.34,5.95-3.69,6.49-6.92,1.67-9.89-3.55-19.41-3.78-29.21-.02-.78-.01-1.58.29-2.3.61-1.44,2.96-1.95,4.27-2.51,2.24-.96,4.49-1.92,6.73-2.88,2.93-1.25,5.57-2.98,6.08-6.4.12-.79.1-1.64-.27-2.35-.51-1-1.59-1.59-2.67-1.9-1.7-.49-3.69-1.06-5.46-.66-1.64.38-2.95,1.5-4.53,2.05s-3.56.62-5.25.54c-2.67-.12-4.31-4.61-.97-5.1.77-.11,1.38.25,2.11.27,1.27.03,2.68-.43,3.93-.65,2.76-.49,5.51-.98,8.27-1.48,5.29-.96,21.59-3.15,20.42-11.1Z"/>
  <path class="cls-1" d="m198.69,371.72c-6.06-1.38-12.13-2.68-18.17-4.14-4.44-1.07-8.96-1.59-13.38-2.74-4.03-1.05-7.88-2.63-12.04-3.22-2.84-.41-6.96-.74-7.8,2.84-.27,1.14-.13,2.33.02,3.48.19,1.47.47,3.06,1.56,4.07.67.62,1.56.94,2.42,1.23,6.06,2.03,12.27,3.53,18.51,4.84,5.1,1.07,10.24,2,15.41,2.63,2.63.32,5.27.56,7.92.71,2.42.13,5.2.5,7.55-.21,1.57-.47,3.03-1.63,3.4-3.22.29-1.28-.16-2.64-.99-3.66-1.09-1.35-2.75-2.22-4.41-2.6Z"/>
  <path class="cls-1" d="m421.45,104.39c-4.49-3.9-9.1-7.62-13.38-11.81-1.89-1.85-3.77-3.76-5.04-6.07-.92-1.68-1.49-3.04-3.31-3.84-2.2-.96-4.38-1.93-6.62-2.79-1.26-.48-2.49-1.01-3.74-1.51-1.18-.47-2.99-.8-3.95-1.55,2.14-3.88,5.1-7.38,7.37-11.22,2.32-3.92,4.41-7.99,6.06-12.24,1.59-4.1,1.55-7.58-1.08-10.72-2.75-3.28-6.42-4.48-10.84-3.29-10.01,2.69-10.72,1.77-14.21-8.16-3.82-10.85-7.66-21.83-15.37-30.8-3.73-1.29-6.67.97-9.84,2.18-.66,1.11-1.76,2.33-.73,3.58,6.14,7.41,8.96,16.42,12.07,25.23,1.22,3.45,1.55,7.2,3.35,10.52.88,1.62-.26,1.81-1.56,2.6-4.16,2.55-9.14,1.6-13.34,3.66-3.25.93-6.33,2.79-9.93,1.9-2.96.87-6.57-.7-8.96,2.36-2.07,9.6,2.72,8.83,9.96,10.7,6.89.07,13.66-.18,20.25-2.84,2.26-.91,4.98-1.36,7.28-.34s2.83,3.57,4.91,4.62c.73.37,1.71.54,2.02,1.31.2.49.02,1.07-.3,1.49s-.77.72-1.19,1.04c-4.33,3.3-5.58,9.04-11.91,9.29-3.13.12-6.26.79-9.12,2.09s-5.02,2.78-5.84,6.05c-.46,1.85-.93,3.71-1.21,5.59-.18,1.24-.29,2.51,0,3.73.66,2.89,3.54,3.96,6.06,4.83,6.6,2.29,12.46-.59,17.23-4.8,4.44-3.92,9.23-4.97,14.55-3.64,3.56.89,6.97,2.47,10.71,2.63.96.04,1.62.48,1.95,1.25.71,1.66-4.35,4.88-5.5,5.68-2.55,1.76-5.26,3.3-7.56,5.38-1,.91-1.92,1.92-3.04,2.66-.88.59-1.87,1-2.85,1.41-3.11,1.29-6.23,2.92-9.53,3.57-3.15.62-6.28.95-9.5.8-6.41-.31-12.74-2.27-18.24-5.57-2.29-1.35-4.02-2.5-1.54-5.64,1.35-1.72,1.92-4.3,1.12-7.2-1.57-5.73-7.25-6.67-12.22-8.09-8.68-2.47-17.28-4.04-26.21-5.22-8.21-1.09-16.45-2.02-24.62-3.37-2.81-.56-5.67-.68-8.52-.48-2.22.16-4.8.26-5.72,2.7-.65,1.73-.42,5.02,1.23,6.19.5.35,1.11.48,1.7.61,9.08,1.93,18.32,2.9,27.44,4.72,10.04,2.01,20.24,3.97,30.15,6.5,1.87.48,3.39,1.09,1.82,2.98-1.69,2.04-3.12,3.82-3.67,6.5-.04.18-.07.37-.04.55.03.21.14.41.26.59.57.93,1.21,1.81,1.94,2.62.51.57,1.57,1.33,1.69,2.13.25,1.69-1.91,1.34-2.98,1.66-2.56.77-5.25,1.66-7.77,2.72s-4.92,2.98-7.56,3.49c-1.73.33-1.64-.44-1.72-1.98-.09-1.72.14-3.48-.01-5.18-.12-1.35-.57-2.54.86-3.37,1.77-1.02,4.41-2.39,4.84-4.6.26-1.32-.46-2.68-1.5-3.53-1.81-1.48-5.32-2.45-7.62-2.13-.92.13-1.8.48-2.65.86-.94.42-1.87.88-2.64,1.55-2.87,2.51-3.1,7.15-3.39,10.66-.28,3.42-.57,6.82-.67,10.25-.06,2.18-.75,3.63-2.93,4.31-4.35,1.35-8.66,2.83-13.04,4.03-3.71,1.02-6.5,4.39-5.28,6.77,2.08,4.06,6.25,5.65,10.72,4.25,2.8-.87,5.65-1.6,8.51-2.23,2.07-.45,3.36-.31,4.15,2.54,2.2,7.87,3.66,15.96,7.88,23.26,6.03,10.43,14.16,17.3,26.52,18.48,4.59.44,9.05-1.28,12.52-4.23,3.92-3.33,5.6-7.71,7.93-12.14.55-1.03,1.11-2.08,1.32-3.22.38-2.07-1.04-4.39-2.13-6.07-.75-1.16-1.83-2.17-3.15-2.56-3.56-1.06-7.5,2.16-9.23,5-.69,1.14-1.49,2.2-2.02,3.43-.68,1.58-1.71,2.76-3.57,2.54-12.78-1.41-18.73-18.48-22.14-29.19-1.02-3.5-.87-3.83,2.17-4.86,8.04-2.7,15.92-6.07,22.35-11.65,2.22-1.93,3.21-1.95,5.45-.75,4.16,2.22,8.33,4.54,13.01,5.55,5.57,1.2,11.23,2.43,16.96,2.27,5.92-.16,11.31-2.63,16.68-4.96,3.08-1.33,5.92-3,8.33-5.35,2.16-2.1,5.26-3.04,7.04-5.64.48-.7.81-1.85,1.75-2.11,1.07-.29,2.29.88,3.11,1.42,3.05,2.03,5.96,4.58,9.15,6.34,2.77,1.53,5.66,2.81,8.5,4.2,3.85,1.88,10.97-2.75,10.79-7-.29-6.55-5.22-10.21-9.47-13.92Z"/>
  <path class="cls-1" d="m488.8,370.52c1.54-7.54-.93-16.57-6.18-22.01-7.48-7.75-16.22-7.88-25.83-7.37-8.03.43-16.05,2.18-24.11,1.06-1.43-.2-2.88-.66-3.89-1.68-1.83-1.84-2.07-5.45-1.67-7.89.5-3.1-1.67-4.41-3.9-4.66-2.52-.29-5.48-1.45-7.49,1.84-1.87,3.08-2.18,6.33-2.58,9.75-.4,3.39.1,6.76,1.78,9.76,1.47,2.62,5.17,4.5,5.23,7.78.02.96-.32,1.88-.63,2.79-2.23,6.57-2.81,13.54-3.51,20.4-.75,7.31-1.2,14.59-.93,21.95.08,2.13.22,4.3.97,6.3,2.07,5.5,7.58,6.24,12.18,3.37.62-.39,1.27-.81,1.63-1.46.34-.6.39-1.33.43-2.02.85-14.52,1.79-29.05,1.9-43.6,0-1.26.02-2.58.62-3.69,1.24-2.32,4.42-1.36,6.55-1.43,3.14-.11,6.25-.62,9.37-.96,2.5-.27,4.93.05,7.41-.02,2.75-.08,5.43-.87,8.19-.85,1.1.01,2.24.16,3.16.75,1.76,1.11,2.46,3.48,2.87,5.4.59,2.7.89,5.71-.57,8.06-1.37,2.2-3.94,3.28-6.05,4.79-2.57,1.85-3.6,4.82-2.45,7.84.27.72.66,1.42,1.25,1.92.56.47,1.26.74,1.96.96,4.29,1.34,9.41,1.31,13.42-.89,4.82-2.65,8.54-8.74,10.25-13.83.26-.77.47-1.56.63-2.37Z"/>
  <path class="cls-1" d="m230.72,197.59c-.81-1.17-1.92-2.16-3.13-2.91-2.04-1.26-4.39-1.92-6.74-2.4-4.06-.82-8.01-1.59-11.97-2.86-3.13-1-6.25-2.07-9.44-2.87-.65-.16-1.46-.07-2.06-.36-.73-.35-.62-1.09-.48-1.86.18-1.02.36-2.04.62-3.04.93-3.53,2.97-6.71,4.34-10.1,1.53-3.79,1.87-8.02,2.23-12.06.56-6.33,2.76-10.01,6.94-14.64,5.81-6.44,10.9-14.17,11.05-23.91.1-6.74-1.23-12.43-5.92-17.6-9.32-10.26-26.79-10.79-39.4-8.36-2.22.43-4.41.98-6.58,1.61-4.69,1.35-1.65-6.15-1.22-8.17.69-3.23,1.3-6.48,1.81-9.75.47-2.98.73-5.92,1.83-8.76.94-2.44,2.15-6.14-.78-7.74-2.46-1.34-5.7-1.08-7.97,1.81-2.69,3.43-2.91,8.73-3.83,12.86-1.27,6.01-3.12,12.02-3.71,18.15-.45,4.92-3.09,7.34-6.79,9.73-4.49,2.91-9.07,5.44-12.79,9.37-.92.97-2.1,1.59-3.18.47-1.54-1.6-.45-3.29.68-4.76,1.29-1.7,2.49-3.58,2.48-5.79,0-1.68-2.31-3.97-3.78-4.78-2.96-1.62-6.51-1.35-9.22.66-1.21.9-2.2,2.07-2.86,3.43-1.04,2.14-1,4.55-1.1,6.87-.12,2.61-.35,5.21-.58,7.81-.33,3.72-.67,7.44-.69,11.18-.02,2.6.05,5.2.09,7.79.04,2.46-.08,4.91-.13,7.38-.17,8.7.6,17.17,2.23,25.71,1.65,8.58,3.76,17.05,6,25.49,2.18,8.23,3.63,20.08,14.12,21.31,1.98.23,4.1.03,5.72-1.13,1.42-1.02,2.29-2.77,2.26-4.51-.04-2.64-2.19-3.98-3.34-6.1-1.32-2.43-1.85-5.2-2.58-7.84-4.12-14.98-6.97-30.18-8.22-45.65-.24-3-.53-6-.86-8.99s-.12-5.76-.12-8.68c.08-1.14.2-1.76.91-2.64.52-.65,1.14-1.23,1.78-1.77,2.55-2.11,5.6-3.44,8.52-4.93.28-.14.56-.29.83-.44,1.02-.58,2.28-1.01,3.44-.4.98.51,1.69,1.81.84,3.3-2.95,5.2-1.39,11.14-2.64,16.71-1.94,8.65,7.66,17.22,16.32,15.09,4.21-1.04,8.67-1.34,12.92-2.42,2.22-.57,4.31-1.38,6.32-2.5,1.42-.79,3.45-1.14,4.54.42,1.56,2.23-.09,4.74-1.11,6.82-.97,1.98-1.67,4.09-2.22,6.23-.48,1.85-.54,4.31-1.43,6-1.83,3.5-5.93,2.96-9.01,1.62-1.65-.72-3.09-1.96-4.87-2.36-2.02-.46-3.79.38-4.85,2.13-1.85,3.04.27,5.09,2.85,6.94,8.32,5.96,8.26,6.04,3.75,14.6-1.16,2.59-.82,6.93-5.84,5.01-2.77-1.6-4.45-.29-5.98,2.04-2.77,4.2-1.85,9.3.45,11.92,2.84,3.23,5.68,5.95,11.47,5.44,6.27-.56,9.24-4.39,12.63-7.91,1.31-1.37,2.49-2.94,3.32-4.65s1.08-3.79,1.98-5.54c.81-1.57,2.51-5.32,4.41-5.79,1.93-.48,3.77,1.37,5.37,2.18,1.99,1,4.06,1.84,6.17,2.55,3.3,1.12,6.68,1.96,10.08,2.72,3.2.72,6.29,1.76,9.34,2.99,2.12.85,4.51.95,6.31-.64,1.66-1.47,2.19-4,1.66-6.09-.23-.94-.65-1.81-1.2-2.6Zm-37.85-59.39c-7.58-1.19-14.43,2.49-21.5,4.51-10.77,3.08-10.86,3.09-10.66-8.08.11-6.6,1.59-13.03,3.13-19.43,2.67-2.74,6.15-3.12,9.69-3.33,8.27-.8,16.59-1.78,24.79.26,6.7,1.67,8.76,5.04,7.05,11.65-.85,3.32-2.38,6.52-3.99,9.56-1.73,3.25-3.89,5.58-8.5,4.86Z"/>
  <path class="cls-1" d="m119.44,198.6c-.83-2.15-2.98-3.16-4.71-2.77-3.44.77-7.33,1.19-10.56,2.65-2.62,1.18-5.15,2.57-7.94,3.32-1.81.48-3.68.6-5.5,1-.89.2-1.87.43-2.67.88s-1.28,1.19-2.03,1.65c-1.22.75-1.57-.67-1.71-1.72-.5-4.03-.76-8.1-.75-12.17,0-1.18-.41-3.31.45-4.28.67-.75,1.86-.63,2.76-.56,4.84.39,9.42-1.16,13.95-2.34,2.69-.7,5.26-2.38,6.72-4.79,1.06-1.75,1.47-3.93.87-5.89-1.12-3.68-5.92-6.6-9.7-6.06-1.48.21-3.15.02-4.65.03-2.48.02-4.97.04-7.45.07-.96,0-2.46.35-2.99-.39-.59-.81-.67-2.62-.85-3.59-.57-3.18-.72-6.42-.73-9.65,0-1.54-.11-3.17.01-4.69.1-1.24,1.1-2.2,1.98-3.05,3.95-3.81,8.73-7.04,11.84-11.61,1.31-1.92,2.22-4.07,2.82-6.31.66-2.48,1.3-5.37,1.01-7.94-.16-1.42-.52-2.82-1.06-4.14-.02-.05-.04-.11-.07-.16-1.51-3.59-4.19-6.54-7.07-9.09-10.68-9.47-23.62-15.85-36.15-22.39-9.94-5.19-21.03-8.62-32.5-9.61-4.25-.37-8.53-.16-12.78.27-1.82.18-3.76.04-5.48.75-1.6.66-2.76,2.07-3.59,3.54-.49.86-.91,1.8-.92,2.79-.02,1.96,1.53,3.56,3.1,4.73,1.7,1.26,3.74,2.32,5.83,2.04,1.49-.2,2.78-1.04,4.12-1.67,1.48-.69,3.04-.92,4.67-.98,3.61-.12,7.07,1.01,10.49,2.04,4.37,1.32,8.73,2.67,12.96,4.4,8.98,3.68,16.74,9.88,25.01,14.87,3.47,2.09,6.81,4.23,10.1,6.58,2.1,1.59,4.5,3,5.92,5.28,1.17,1.86,1.52,4.08.86,6.19-.28.88-.48,2.19-1.83,1.78s-.64-1.63-.46-2.73c1.17-5.5-4.1-6.32-4.1-6.32-1.4-.22-2.94.02-4.02,1.01-1.02.93-1.27,2.39-1.62,3.68-.47,1.75-.92,3.62-1.03,5.43-.08,1.36.08,2.72.13,4.08s.02,2.63-.41,3.86c-.53,1.48-1.9,2.51-3,3.56-1.28,1.21-2.72,2.27-4.15,3.3-3.76,2.71-7.35,5.56-11,8.39-3.96,3.06-7.99,6.01-12.05,8.93-3.73,2.69-7.48,5.35-11.21,8.05-4.49,3.25-5.98,7.76-4.18,12.32,1.72,4.35,5.34,5.18,10.9,5.76,4.39.46,8.62-.39,12.97,0,4.5.41,9.07,1.39,13.74.65,2.19-.35,5.82-1.22,7.59.67,1.58,1.7,1.52,4.39,1.18,6.53-.43,2.7-1.16,4.92-.88,7.73.45,4.46,1.34,9.23-2.99,12.1-2.32,1.54-2.45,4.3-.9,6.34.88,1.16,1.81,2.36,3.14,2.95,3.04,1.35,7.45-.38,10.33-1.51,3.32-1.31,6.48-3.01,9.87-4.17,5.62-1.91,10.84-5.05,16.5-6.79,4.45-1.37,7.9-4.14,11.66-6.45,1.91-1.17,3.28-3.65,2.23-6.39Zm-48.98-33.62c-.02,1.5-.13,3.86-2.15,3.81-2.14-.05-4.28-.08-6.42-.05-1.38.02-2.76.1-4.14.2-.66.04-1.41.2-2.07.14-.34-.03-.23-.18-.03-.43.15-.19.36-.34.53-.51.31-.3.65-.58.96-.87.64-.61,1.29-1.19,1.96-1.76,1.33-1.12,2.7-2.18,4.08-3.24,1.66-1.26,3.26-2.69,5.13-3.65.48-.24,1.03-.56,1.36.04.56.99.76,2.14.8,3.27.03.98,0,1.95-.02,2.93,0,.04,0,.08,0,.11Z"/>
</svg>
